<?xml version="1.0" standalone="no"?>
<!DOCTYPE svg PUBLIC "-//W3C//DTD SVG 20010904//EN"
 "http://www.w3.org/TR/2001/REC-SVG-20010904/DTD/svg10.dtd">
<svg version="1.0" xmlns="http://www.w3.org/2000/svg"
 width="80.000000pt" height="80.000000pt" viewBox="0 0 80.000000 80.000000"
 preserveAspectRatio="xMidYMid meet">
<metadata>
Created by potrace 1.10, written by Peter Selinger 2001-2011
</metadata>
<g transform="translate(0.000000,80.000000) scale(0.100000,-0.100000)"
fill="#b30000" stroke="none">
<path d="M303 785 c-157 -42 -264 -160 -294 -320 -12 -67 -7 -125 18 -200 l16
-50 17 65 c9 36 21 75 28 87 16 29 15 33 -8 33 -31 0 -13 27 26 40 19 7 57 27
85 46 28 19 60 34 70 34 19 0 19 -1 -1 -40 -26 -50 -26 -50 11 -50 44 0 32
-24 -14 -28 -34 -3 -37 -7 -56 -58 -42 -110 -20 -160 70 -158 111 1 307 141
366 261 39 81 37 143 -5 185 -42 42 -119 49 -207 20 -41 -14 -54 -16 -40 -6
56 42 209 66 272 44 l28 -10 -30 26 c-61 52 -184 95 -269 93 -17 0 -55 -7 -83
-14z"/>
<path d="M748 537 c-13 -114 -136 -276 -271 -356 -114 -68 -242 -99 -322 -78
l-30 8 25 -21 c42 -34 122 -69 184 -81 256 -47 499 186 459 439 -6 37 -17 83
-25 102 l-15 35 -5 -48z"/>
</g>
</svg>
